<svg width="53" height="48" viewBox="0 0 53 48" fill="none" xmlns="http://www.w3.org/2000/svg">
<path d="M25 0.5H28C40.9787 0.5 51.5 11.0213 51.5 24C51.5 36.9787 40.9787 47.5 28 47.5H25C12.0213 47.5 1.5 36.9787 1.5 24C1.5 11.0213 12.0213 0.5 25 0.5Z" fill="#00B8D4"/>
<path d="M25 0.5H28C40.9787 0.5 51.5 11.0213 51.5 24C51.5 36.9787 40.9787 47.5 28 47.5H25C12.0213 47.5 1.5 36.9787 1.5 24C1.5 11.0213 12.0213 0.5 25 0.5Z" stroke="black" stroke-linecap="round"/>
<path d="M26.5 20.6665V27.3332M23.1667 23.9998H29.8333M34.8333 23.9998C34.8333 28.6022 31.1024 32.3332 26.5 32.3332C21.8976 32.3332 18.1667 28.6022 18.1667 23.9998C18.1667 19.3975 21.8976 15.6665 26.5 15.6665C31.1024 15.6665 34.8333 19.3975 34.8333 23.9998Z" stroke="#212121" stroke-width="2" stroke-linecap="round" stroke-linejoin="round"/>
</svg>
