<svg width="24" height="25" viewBox="0 0 24 25" fill="none" xmlns="http://www.w3.org/2000/svg">
<path d="M12 17.6299C13.3833 17.6299 14.5625 17.1424 15.5375 16.1674C16.5125 15.1924 17 14.0132 17 12.6299C17 11.2465 16.5125 10.0674 15.5375 9.09238C14.5625 8.11738 13.3833 7.62988 12 7.62988C10.6167 7.62988 9.4375 8.11738 8.4625 9.09238C7.4875 10.0674 7 11.2465 7 12.6299C7 14.0132 7.4875 15.1924 8.4625 16.1674C9.4375 17.1424 10.6167 17.6299 12 17.6299ZM12 22.6299C10.6167 22.6299 9.31667 22.3674 8.1 21.8424C6.88333 21.3174 5.825 20.6049 4.925 19.7049C4.025 18.8049 3.3125 17.7465 2.7875 16.5299C2.2625 15.3132 2 14.0132 2 12.6299C2 11.2465 2.2625 9.94655 2.7875 8.72988C3.3125 7.51322 4.025 6.45488 4.925 5.55488C5.825 4.65488 6.88333 3.94238 8.1 3.41738C9.31667 2.89238 10.6167 2.62988 12 2.62988C13.3833 2.62988 14.6833 2.89238 15.9 3.41738C17.1167 3.94238 18.175 4.65488 19.075 5.55488C19.975 6.45488 20.6875 7.51322 21.2125 8.72988C21.7375 9.94655 22 11.2465 22 12.6299C22 14.0132 21.7375 15.3132 21.2125 16.5299C20.6875 17.7465 19.975 18.8049 19.075 19.7049C18.175 20.6049 17.1167 21.3174 15.9 21.8424C14.6833 22.3674 13.3833 22.6299 12 22.6299ZM12 20.6299C14.2333 20.6299 16.125 19.8549 17.675 18.3049C19.225 16.7549 20 14.8632 20 12.6299C20 10.3965 19.225 8.50488 17.675 6.95488C16.125 5.40488 14.2333 4.62988 12 4.62988C9.76667 4.62988 7.875 5.40488 6.325 6.95488C4.775 8.50488 4 10.3965 4 12.6299C4 14.8632 4.775 16.7549 6.325 18.3049C7.875 19.8549 9.76667 20.6299 12 20.6299Z" fill="#1D1B20"/>
</svg>
