<svg width="137" height="135" viewBox="0 0 137 135" fill="none" xmlns="http://www.w3.org/2000/svg">
<path d="M113.5 111V101C113.5 95.6957 111.34 90.6086 107.496 86.8579C103.651 83.1071 98.4369 81 93 81H52C46.5631 81 41.3488 83.1071 37.5043 86.8579C33.6598 90.6086 31.5 95.6957 31.5 101V111M135 67.5C135 103.675 105.227 133 68.5 133C31.7731 133 2 103.675 2 67.5C2 31.3253 31.7731 2 68.5 2C105.227 2 135 31.3253 135 67.5ZM93 41C93 52.0457 83.8218 61 72.5 61C61.1782 61 52 52.0457 52 41C52 29.9543 61.1782 21 72.5 21C83.8218 21 93 29.9543 93 41Z" stroke="#212121" stroke-width="4" stroke-linecap="round" stroke-linejoin="round"/>
</svg>
