<svg width="39" height="39" viewBox="0 0 39 39" fill="none" xmlns="http://www.w3.org/2000/svg">
<path d="M19.5 19.5C20.3938 19.5 21.1589 19.1818 21.7953 18.5453C22.4318 17.9089 22.75 17.1438 22.75 16.25C22.75 15.3562 22.4318 14.5911 21.7953 13.9547C21.1589 13.3182 20.3938 13 19.5 13C18.6062 13 17.8411 13.3182 17.2047 13.9547C16.5682 14.5911 16.25 15.3562 16.25 16.25C16.25 17.1438 16.5682 17.9089 17.2047 18.5453C17.8411 19.1818 18.6062 19.5 19.5 19.5ZM19.5 31.4438C22.8042 28.4104 25.2552 25.6547 26.8531 23.1766C28.451 20.6984 29.25 18.4979 29.25 16.575C29.25 13.6229 28.3089 11.2057 26.4266 9.32344C24.5443 7.44115 22.2354 6.5 19.5 6.5C16.7646 6.5 14.4557 7.44115 12.5734 9.32344C10.6911 11.2057 9.75 13.6229 9.75 16.575C9.75 18.4979 10.549 20.6984 12.1469 23.1766C13.7448 25.6547 16.1958 28.4104 19.5 31.4438ZM19.5 35.75C15.1396 32.0396 11.8828 28.5932 9.72969 25.4109C7.57656 22.2286 6.5 19.2833 6.5 16.575C6.5 12.5125 7.80677 9.27604 10.4203 6.86563C13.0339 4.45521 16.0604 3.25 19.5 3.25C22.9396 3.25 25.9661 4.45521 28.5797 6.86563C31.1932 9.27604 32.5 12.5125 32.5 16.575C32.5 19.2833 31.4234 22.2286 29.2703 25.4109C27.1172 28.5932 23.8604 32.0396 19.5 35.75Z" fill="#212121"/>
</svg>
